<svg width="20" height="20" viewBox="0 0 20 20" fill="none" xmlns="http://www.w3.org/2000/svg">
<g clip-path="url(#clip0_659_834)">
<path d="M2.5 18.3133C2.27899 18.3133 2.06702 18.2255 1.91074 18.0693C1.75446 17.913 1.66667 17.701 1.66667 17.48V0H0V17.48C0 18.143 0.263392 18.7789 0.732233 19.2478C1.20107 19.7166 1.83696 19.98 2.5 19.98H20V18.3133H2.5Z" fill="#5d776e"/>
<path d="M5.83366 10H4.16699V15.8333H5.83366V10Z" fill="#5d776e"/>
<path d="M9.99968 8.33325H8.33301V15.8333H9.99968V8.33325Z" fill="#5d776e"/>
<path d="M14.1667 10.8333H12.5V15.8333H14.1667V10.8333Z" fill="#5d776e"/>
<path d="M18.3337 7.5H16.667V15.8333H18.3337V7.5Z" fill="#5d776e"/>
<path d="M9.16697 3.67855L13.3336 7.84522L19.7561 1.42272L18.5778 0.244385L13.3336 5.48855L9.16697 1.32188L4.41113 6.07772L5.58947 7.25605L9.16697 3.67855Z" fill="#5d776e"/>
</g>
<defs>
<clipPath id="clip0_659_834">
<rect width="20" height="20" fill="#5d776e"/>
</clipPath>
</defs>
</svg>
