<svg width="60" height="60" viewBox="0 0 60 60" fill="none" xmlns="http://www.w3.org/2000/svg">
<g clip-path="url(#clip0_336_1255)">
<path d="M33.345 2.08276C32.4269 1.25635 31.2353 0.799072 30 0.799072C28.7647 0.799072 27.5731 1.25635 26.655 2.08276L0 26.0728V52.0728C0 54.1945 0.842855 56.2293 2.34315 57.7296C3.84344 59.2299 5.87827 60.0728 8 60.0728H52C54.1217 60.0728 56.1566 59.2299 57.6569 57.7296C59.1571 56.2293 60 54.1945 60 52.0728V26.0728L33.345 2.08276ZM37.5 55.0653H22.5V42.5003C22.5 40.5111 23.2902 38.6035 24.6967 37.197C26.1032 35.7904 28.0109 35.0003 30 35.0003C31.9891 35.0003 33.8968 35.7904 35.3033 37.197C36.7098 38.6035 37.5 40.5111 37.5 42.5003V55.0653ZM55 52.0653C55 52.8609 54.6839 53.624 54.1213 54.1866C53.5587 54.7492 52.7956 55.0653 52 55.0653H42.5V42.5003C42.5 39.1851 41.183 36.0056 38.8388 33.6614C36.4946 31.3172 33.3152 30.0003 30 30.0003C26.6848 30.0003 23.5054 31.3172 21.1612 33.6614C18.817 36.0056 17.5 39.1851 17.5 42.5003V55.0653H8C7.20435 55.0653 6.44129 54.7492 5.87868 54.1866C5.31607 53.624 5 52.8609 5 52.0653V28.2978L30 5.79776L55 28.2978V52.0653Z" fill="white"/>
</g>
<defs>
<clipPath id="clip0_336_1255">
<rect width="60" height="60" fill="white"/>
</clipPath>
</defs>
</svg>
