<svg width="20" height="20" viewBox="0 0 20 20" fill="none" xmlns="http://www.w3.org/2000/svg">
<g clip-path="url(#clip0_541_3706)">
<path d="M17.5 3.3335H2.5C1.83696 3.3335 1.20107 3.59689 0.732233 4.06573C0.263392 4.53457 0 5.17045 0 5.8335L0 16.6668H20V5.8335C20 5.17045 19.7366 4.53457 19.2678 4.06573C18.7989 3.59689 18.163 3.3335 17.5 3.3335V3.3335ZM18.3333 15.0002H1.66667V5.8335C1.66667 5.61248 1.75446 5.40052 1.91074 5.24424C2.06702 5.08796 2.27899 5.00016 2.5 5.00016H17.5C17.721 5.00016 17.933 5.08796 18.0893 5.24424C18.2455 5.40052 18.3333 5.61248 18.3333 5.8335V15.0002ZM10 6.66683C9.34073 6.66683 8.69626 6.86233 8.1481 7.2286C7.59994 7.59487 7.17269 8.11546 6.9204 8.72455C6.66811 9.33364 6.6021 10.0039 6.73072 10.6505C6.85933 11.2971 7.1768 11.891 7.64298 12.3572C8.10915 12.8234 8.7031 13.1408 9.3497 13.2694C9.9963 13.3981 10.6665 13.3321 11.2756 13.0798C11.8847 12.8275 12.4053 12.4002 12.7716 11.8521C13.1378 11.3039 13.3333 10.6594 13.3333 10.0002C13.3333 9.11611 12.9821 8.26826 12.357 7.64314C11.7319 7.01802 10.8841 6.66683 10 6.66683V6.66683ZM10 11.6668C9.67036 11.6668 9.34813 11.5691 9.07405 11.3859C8.79997 11.2028 8.58635 10.9425 8.4602 10.638C8.33405 10.3334 8.30105 9.99831 8.36536 9.67501C8.42967 9.35171 8.5884 9.05474 8.82149 8.82165C9.05458 8.58856 9.35155 8.42983 9.67485 8.36552C9.99815 8.30121 10.3333 8.33422 10.6378 8.46036C10.9423 8.58651 11.2026 8.80013 11.3858 9.07421C11.5689 9.34829 11.6667 9.67053 11.6667 10.0002C11.6667 10.4422 11.4911 10.8661 11.1785 11.1787C10.866 11.4912 10.442 11.6668 10 11.6668ZM5 7.50016C5 7.66498 4.95113 7.8261 4.85956 7.96314C4.76799 8.10018 4.63784 8.20699 4.48557 8.27006C4.3333 8.33314 4.16574 8.34964 4.00409 8.31748C3.84244 8.28533 3.69395 8.20596 3.57741 8.08942C3.46087 7.97287 3.3815 7.82439 3.34935 7.66274C3.31719 7.50109 3.33369 7.33353 3.39677 7.18126C3.45984 7.02899 3.56665 6.89884 3.70369 6.80727C3.84073 6.7157 4.00185 6.66683 4.16667 6.66683C4.38768 6.66683 4.59964 6.75463 4.75592 6.91091C4.9122 7.06719 5 7.27915 5 7.50016ZM16.6667 7.50016C16.6667 7.66498 16.6178 7.8261 16.5262 7.96314C16.4347 8.10018 16.3045 8.20699 16.1522 8.27006C16 8.33314 15.8324 8.34964 15.6708 8.31748C15.5091 8.28533 15.3606 8.20596 15.2441 8.08942C15.1275 7.97287 15.0482 7.82439 15.016 7.66274C14.9839 7.50109 15.0004 7.33353 15.0634 7.18126C15.1265 7.02899 15.2333 6.89884 15.3704 6.80727C15.5074 6.7157 15.6685 6.66683 15.8333 6.66683C16.0543 6.66683 16.2663 6.75463 16.4226 6.91091C16.5789 7.06719 16.6667 7.27915 16.6667 7.50016ZM5 12.5002C5 12.665 4.95113 12.8261 4.85956 12.9631C4.76799 13.1002 4.63784 13.207 4.48557 13.2701C4.3333 13.3331 4.16574 13.3496 4.00409 13.3175C3.84244 13.2853 3.69395 13.206 3.57741 13.0894C3.46087 12.9729 3.3815 12.8244 3.34935 12.6627C3.31719 12.5011 3.33369 12.3335 3.39677 12.1813C3.45984 12.029 3.56665 11.8988 3.70369 11.8073C3.84073 11.7157 4.00185 11.6668 4.16667 11.6668C4.38768 11.6668 4.59964 11.7546 4.75592 11.9109C4.9122 12.0672 5 12.2791 5 12.5002ZM16.6667 12.5002C16.6667 12.665 16.6178 12.8261 16.5262 12.9631C16.4347 13.1002 16.3045 13.207 16.1522 13.2701C16 13.3331 15.8324 13.3496 15.6708 13.3175C15.5091 13.2853 15.3606 13.206 15.2441 13.0894C15.1275 12.9729 15.0482 12.8244 15.016 12.6627C14.9839 12.5011 15.0004 12.3335 15.0634 12.1813C15.1265 12.029 15.2333 11.8988 15.3704 11.8073C15.5074 11.7157 15.6685 11.6668 15.8333 11.6668C16.0543 11.6668 16.2663 11.7546 16.4226 11.9109C16.5789 12.0672 16.6667 12.2791 16.6667 12.5002Z" fill="#fff"/>
</g>
<defs>
<clipPath id="clip0_541_3706">
<rect width="20" height="20" fill="#fff" transform="translate(0 0.5)"/>
</clipPath>
</defs>
</svg>
