<svg width="24" height="24" viewBox="0 0 24 24" fill="none" xmlns="http://www.w3.org/2000/svg">
<g clip-path="url(#clip0_1_2069)">
<path d="M21 5.99991H11C10.3111 6.00002 9.64314 6.23726 9.10848 6.67176C8.57382 7.10626 8.205 7.71154 8.064 8.38591C7.58042 8.13566 7.04448 8.00339 6.5 7.99991C5.57174 7.99991 4.6815 8.36866 4.02513 9.02503C3.36875 9.68141 3 10.5717 3 11.4999C3.00293 12.0199 3.12289 12.5326 3.351 12.9999H2V1.99991H0V21.9999H2V18.9999H22V21.9999H24V8.99991C24 8.20426 23.6839 7.4412 23.1213 6.87859C22.5587 6.31598 21.7956 5.99991 21 5.99991ZM10 8.99991C10 8.73469 10.1054 8.48034 10.2929 8.2928C10.4804 8.10527 10.7348 7.99991 11 7.99991H21C21.2652 7.99991 21.5196 8.10527 21.7071 8.2928C21.8946 8.48034 22 8.73469 22 8.99991V12.9999H10V8.99991ZM5 11.4999C5 11.2032 5.08797 10.9132 5.2528 10.6666C5.41762 10.4199 5.65189 10.2276 5.92597 10.1141C6.20006 10.0006 6.50166 9.97085 6.79264 10.0287C7.08361 10.0866 7.35088 10.2295 7.56066 10.4392C7.77044 10.649 7.9133 10.9163 7.97118 11.2073C8.02906 11.4982 7.99935 11.7998 7.88582 12.0739C7.77229 12.348 7.58003 12.5823 7.33336 12.7471C7.08668 12.9119 6.79667 12.9999 6.5 12.9999C6.10218 12.9999 5.72064 12.8419 5.43934 12.5606C5.15804 12.2793 5 11.8977 5 11.4999ZM2 16.9999V14.9999H22V16.9999H2Z" fill="#00000073"/>
</g>
<defs>
<clipPath id="clip0_1_2069">
<rect width="24" height="24" fill="#00000073"/>
</clipPath>
</defs>
</svg>
