<svg width="24" height="24" viewBox="0 0 24 24" fill="none" xmlns="http://www.w3.org/2000/svg">
<g clip-path="url(#clip0_1_2369)">
<path d="M13.9998 24C13.2115 24.0023 12.4306 23.848 11.7024 23.546C10.9742 23.2441 10.3132 22.8005 9.75783 22.241C8.63915 21.112 8.01154 19.5869 8.01154 17.9975C8.01154 16.4081 8.63915 14.883 9.75783 13.754L13.9998 9.253L18.2628 13.772C19.3717 14.9033 19.991 16.4253 19.987 18.0093C19.9831 19.5933 19.3562 21.1123 18.2418 22.238C17.6867 22.798 17.0258 23.2421 16.2976 23.5446C15.5694 23.8471 14.7884 24.0019 13.9998 24ZM13.9998 12.171L11.1918 15.148C10.4364 15.8986 10.01 16.9184 10.0062 17.9834C10.0025 19.0483 10.4217 20.0711 11.1718 20.827C11.9334 21.5549 12.9463 21.9611 13.9998 21.9611C15.0533 21.9611 16.0662 21.5549 16.8278 20.827C17.5735 20.0742 17.9918 19.0575 17.9918 17.998C17.9918 16.9385 17.5735 15.9218 16.8278 15.169L13.9998 12.171ZM4.99983 11.996C4.34298 11.9978 3.6923 11.8693 3.0855 11.6178C2.47869 11.3663 1.92783 10.9969 1.46483 10.531C0.532706 9.59019 0.00976562 8.31938 0.00976562 6.995C0.00976563 5.67062 0.532706 4.39981 1.46483 3.459L4.99983 0L8.52683 3.448C9.4627 4.38796 9.98878 5.65994 9.99028 6.98635C9.99178 8.31276 9.46857 9.58593 8.53483 10.528C8.07194 10.9941 7.5211 11.3636 6.91427 11.615C6.30744 11.8665 5.65671 11.995 4.99983 11.993V11.996ZM4.99983 2.796L2.87083 4.878C2.32522 5.44469 2.02403 6.20302 2.03213 6.98964C2.04023 7.77626 2.35698 8.52823 2.91415 9.08356C3.47132 9.6389 4.22433 9.95316 5.01097 9.95867C5.79761 9.96418 6.55494 9.66048 7.11983 9.113C7.67915 8.54858 7.99294 7.78611 7.99294 6.9915C7.99294 6.19689 7.67915 5.43443 7.11983 4.87L4.99983 2.796ZM19.9998 9.996C19.4741 9.99679 18.9534 9.89325 18.468 9.69139C17.9826 9.48952 17.542 9.19334 17.1718 8.82C16.4263 8.0674 16.008 7.05087 16.008 5.9915C16.008 4.93213 16.4263 3.9156 17.1718 3.163L19.9818 0.039L22.8598 3.2C23.5907 3.95557 23.9966 4.96732 23.9906 6.01853C23.9847 7.06973 23.5673 8.07679 22.8278 8.824C22.4571 9.19608 22.0163 9.49096 21.5309 9.69162C21.0455 9.89227 20.5251 9.99471 19.9998 9.993V9.996ZM19.9918 3.021L18.6218 4.542C18.2416 4.91224 18.0241 5.41835 18.0171 5.94898C18.01 6.47962 18.2141 6.99131 18.5843 7.3715C18.9546 7.75169 19.4607 7.96923 19.9913 7.97626C20.522 7.98329 21.0336 7.77924 21.4138 7.409C21.7866 7.03262 21.9958 6.52427 21.9958 5.9945C21.9958 5.46473 21.7866 4.95638 21.4138 4.58L19.9918 3.021Z" fill="#00000073"/>
</g>
<defs>
<clipPath id="clip0_1_2369">
<rect width="24" height="24" fill="#00000073"/>
</clipPath>
</defs>
</svg>
