<svg width="32" height="32" viewBox="0 0 32 32" fill="none" xmlns="http://www.w3.org/2000/svg">
<g clip-path="url(#clip0_11_2721)">
<path d="M2.66667 27.9683V-0.0317383H0V27.9683C0 29.0291 0.421427 30.0465 1.17157 30.7967C1.92172 31.5468 2.93913 31.9683 4 31.9683H32V29.3016H4C3.64638 29.3016 3.30724 29.1611 3.05719 28.9111C2.80714 28.661 2.66667 28.3219 2.66667 27.9683Z" fill="#5d776e"/>
<path d="M30.0001 5.30127H22.6668L26.3908 9.02527L20.6668 14.7493L18.0001 12.0826L8.37476 21.7079L10.2668 23.5999L18.0068 15.8666L20.6734 18.5333L28.2828 10.9239L32.0001 14.6346V7.30127C32.0001 6.77084 31.7894 6.26213 31.4143 5.88706C31.0392 5.51198 30.5305 5.30127 30.0001 5.30127Z" fill="#5d776e"/>
</g>
<defs>
<clipPath id="clip0_11_2721">
<rect width="32" height="32" fill="white"/>
</clipPath>
</defs>
</svg>
